<?xml version="1.0" encoding="UTF-8" standalone="no"?>
<!-- Created with Inkscape (http://www.inkscape.org/) -->

<svg
   width="50.436199mm"
   height="50.436199mm"
   viewBox="0 0 50.436199 50.436199"
   version="1.1"
   id="svg1"
   sodipodi:docname="ov_logo.svg"
   inkscape:version="1.4.2 (ebf0e940d0, 2025-05-08)"
   inkscape:export-filename="ov_logo.png"
   inkscape:export-xdpi="600"
   inkscape:export-ydpi="600"
   xmlns:inkscape="http://www.inkscape.org/namespaces/inkscape"
   xmlns:sodipodi="http://sodipodi.sourceforge.net/DTD/sodipodi-0.dtd"
   xmlns="http://www.w3.org/2000/svg"
   xmlns:svg="http://www.w3.org/2000/svg">
  <sodipodi:namedview
     id="namedview1"
     pagecolor="#340d27"
     bordercolor="#000000"
     borderopacity="0.25"
     inkscape:showpageshadow="2"
     inkscape:pageopacity="0.0"
     inkscape:pagecheckerboard="0"
     inkscape:deskcolor="#d1d1d1"
     inkscape:document-units="mm"
     showgrid="false"
     inkscape:zoom="2.9230171"
     inkscape:cx="84.672786"
     inkscape:cy="122.13408"
     inkscape:window-width="1884"
     inkscape:window-height="999"
     inkscape:window-x="0"
     inkscape:window-y="0"
     inkscape:window-maximized="0"
     inkscape:current-layer="svg1" />
  <defs
     id="defs1" />
  <g
     id="layer1"
     transform="translate(-66.14583,-66.145838)">
    <path
       style="fill:none;stroke:#cc0000;stroke-width:2;stroke-linecap:round;stroke-dasharray:none"
       id="circle1"
       d="M 91.364014,70.042095 A 21.321856,21.321857 0 0 1 112.26304,87.13876 21.321856,21.321857 0 0 1 99.646821,111.01126 21.321856,21.321857 0 0 1 73.747672,103.37587 21.321856,21.321857 0 0 1 76.099408,76.477268" />
    <path
       d="m 82.380119,83.15865 q 2.397176,0 4.223063,1.008158 1.837088,0.996956 2.86765,2.811641 1.041763,1.803483 1.041763,4.223063 0,2.453185 -0.996956,4.346282 -0.996956,1.881895 -2.822843,2.957264 -1.814685,1.064167 -4.312677,1.064167 -2.531597,0 -4.357484,-1.030562 -1.825886,-1.041763 -2.811641,-2.912457 -0.985755,-1.870693 -0.985755,-4.368685 0,-2.397176 1.041764,-4.223063 1.052965,-1.825887 2.890053,-2.845247 1.837089,-1.030561 4.223063,-1.030561 z m 2.464387,11.504205 q 0,-1.769878 -0.347255,-3.43894 -0.08961,-0.425666 -0.291245,-1.131377 -0.201632,-0.705711 -0.515281,-1.489834 -0.302448,-0.784123 -0.705711,-1.489834 -0.392061,-0.70571 -0.873737,-1.142579 -0.470474,-0.44807 -1.008158,-0.44807 -0.57129,0 -0.817729,0.470473 -0.235236,0.470474 -0.291245,1.075369 -0.04481,0.593693 -0.04481,0.996957 0,1.389018 0.224035,2.778036 0.235237,1.377816 0.716912,2.688422 0.134421,0.380859 0.403264,0.985754 0.280044,0.604895 0.660903,1.20979 0.38086,0.604895 0.817729,1.01936 0.44807,0.414465 0.918544,0.414465 0.57129,0 0.806526,-0.459272 0.246439,-0.459272 0.291246,-1.052965 0.05601,-0.593693 0.05601,-0.985755 z m 17.474744,-9.823942 q 0,-0.649702 0.38086,-0.929745 0.38086,-0.291246 0.98575,-0.291246 h 3.46135 q 0.60489,0 0.97455,0.291246 0.38086,0.291245 0.38086,0.929745 0,0.616097 -0.33605,0.851334 -0.32486,0.235237 -0.78413,0.504079 -0.43687,0.257641 -0.6609,0.672106 -0.21283,0.403263 -0.38086,0.862535 l -3.14769,8.457327 q -0.17923,0.481676 -0.29125,0.907343 -0.10082,0.425666 -0.10082,0.952149 0,0.470474 -0.29124,0.772921 -0.28005,0.302448 -0.76172,0.302448 h -4.245468 q -0.515281,0 -0.76172,-0.324851 -0.246438,-0.324851 -0.246438,-0.806527 0,-0.392061 -0.112018,-0.761719 -0.112017,-0.38086 -0.246438,-0.739316 L 92.820157,87.49373 Q 92.640929,87.012054 92.472903,86.765616 92.316078,86.519177 91.879209,86.227931 91.408736,85.914282 91.162297,85.690247 90.92706,85.45501 90.92706,84.838913 q 0,-0.649702 0.38086,-0.929745 0.38086,-0.291246 0.985755,-0.291246 h 6.429809 q 0.604895,0 0.974553,0.291246 0.380863,0.280043 0.380863,0.929745 0,0.481676 -0.235241,0.739316 -0.224035,0.246439 -0.526482,0.414465 -0.291246,0.168027 -0.526483,0.38086 -0.224035,0.212834 -0.224035,0.616097 0,0.201632 0.04481,0.403263 0.04481,0.201632 0.112018,0.392062 l 2.419573,6.788265 2.64362,-7.191529 q 0.10081,-0.280043 0.10081,-0.504079 0,-0.347254 -0.23523,-0.526482 -0.23524,-0.19043 -0.54889,-0.358457 -0.31365,-0.168026 -0.54889,-0.414465 -0.23523,-0.25764 -0.23523,-0.739316 z"
       id="text1"
       style="font-size:22.9412px;font-family:Caprasimo;-inkscape-font-specification:Caprasimo;fill:#ffffff;stroke-width:0.199999;stroke-linecap:round"
       aria-label="OV" />
  </g>
</svg>
